HIERARCHY
ROOT Hips
{
	OFFSET -3.958830 18.904000 13.208200
	CHANNELS 6 Xposition Yposition Zposition Zrotation Yrotation Xrotation 
	JOINT LHipJoint
	{
		OFFSET 0.000000 0.000000 0.000000
		CHANNELS 3 Zrotation Yrotation Xrotation
		JOINT LeftUpLeg
		{
			OFFSET 1.800000 -1.400000 0.085000
			CHANNELS 3 Zrotation Yrotation Xrotation
			JOINT LeftLeg
			{
				OFFSET 2.215000 -6.000000 0.000000
				CHANNELS 3 Zrotation Yrotation Xrotation
				JOINT LeftFoot
				{
					OFFSET 2.500000 -6.900000 0.000000
					CHANNELS 3 Zrotation Yrotation Xrotation
					JOINT LeftToeBase
					{
						OFFSET 0.200000 -0.500000 1.950000
						CHANNELS 3 Zrotation Yrotation Xrotation
						End Site
						{
							OFFSET 0.000000 0.000000 0.000000
						}
					}
				}
			}
		}
	}
	JOINT RHipJoint
	{
		OFFSET 0.000000 0.000000 0.000000
		CHANNELS 3 Zrotation Yrotation Xrotation
		JOINT RightUpLeg
		{
			OFFSET -1.800000 -1.400000 0.085000
			CHANNELS 3 Zrotation Yrotation Xrotation
			JOINT RightLeg
			{
				OFFSET -2.215000 -6.000000 0.000000
				CHANNELS 3 Zrotation Yrotation Xrotation
				JOINT RightFoot
				{
					OFFSET -2.500000 -6.900000 0.000000
					CHANNELS 3 Zrotation Yrotation Xrotation
					JOINT RightToeBase
					{
						OFFSET -0.200000 -0.500000 1.950000
						CHANNELS 3 Zrotation Yrotation Xrotation
						End Site
						{
							OFFSET 0.000000 0.000000 0.000000
						}
					}
				}
			}
		}
	}
	JOINT LowerBack
	{
		OFFSET 0.000000 0.000000 0.000000
		CHANNELS 3 Zrotation Yrotation Xrotation
		JOINT Spine
		{
			OFFSET -0.087000 1.940000 -0.288900
			CHANNELS 3 Zrotation Yrotation Xrotation
			JOINT Spine1
			{
				OFFSET 0.000000 1.950000 0.060000
				CHANNELS 3 Zrotation Yrotation Xrotation
				JOINT Neck
				{
					OFFSET 0.000000 0.000000 0.000000
					CHANNELS 3 Zrotation Yrotation Xrotation
					JOINT Neck1
					{
						OFFSET 0.000000 1.600000 0.340000
						CHANNELS 3 Zrotation Yrotation Xrotation
						JOINT Head
						{
							OFFSET 0.000000 1.667000 -0.240000
							CHANNELS 3 Zrotation Yrotation Xrotation
							End Site
							{
								OFFSET 0.000000 0.000000 0.000000
							}
						}
					}
				}
				JOINT LeftShoulder
				{
					OFFSET 0.000000 0.000000 0.000000
					CHANNELS 3 Zrotation Yrotation Xrotation
					JOINT LeftArm
					{
						OFFSET 2.700000 1.550000 -0.730000
						CHANNELS 3 Zrotation Yrotation Xrotation
						JOINT LeftForeArm
						{
							OFFSET 5.450000 0.000000 0.000000
							CHANNELS 3 Zrotation Yrotation Xrotation
							JOINT LeftHand
							{
								OFFSET 3.450000 0.000000 0.000000
								CHANNELS 3 Zrotation Yrotation Xrotation
								JOINT LeftHandIndex1
								{
									OFFSET 0.750000 0.000000 0.000000
									CHANNELS 3 Zrotation Yrotation Xrotation
									End Site
									{
										OFFSET 0.000000 0.000000 0.000000
									}
								}
							}
						}
					}
				}
				JOINT RightShoulder
				{
					OFFSET 0.000000 0.000000 0.000000
					CHANNELS 3 Zrotation Yrotation Xrotation
					JOINT RightArm
					{
						OFFSET -2.700000 1.550000 -0.730000
						CHANNELS 3 Zrotation Yrotation Xrotation
						JOINT RightForeArm
						{
							OFFSET -5.450000 0.000000 0.000000
							CHANNELS 3 Zrotation Yrotation Xrotation
							JOINT RightHand
							{
								OFFSET -3.450000 0.000000 0.000000
								CHANNELS 3 Zrotation Yrotation Xrotation
								JOINT RightHandIndex1
								{
									OFFSET -0.750000 0.000000 0.000000
									CHANNELS 3 Zrotation Yrotation Xrotation
									End Site
									{
										OFFSET 0.000000 0.000000 0.000000
									}
								}
							}
						}
					}
				}
			}
		}
	}
}
MOTION
Frames: 14
Frame Time: 0.016667
-0.899920 17.079110 -1.793800 -0.732612 -3.085412 1.163281 -15.411460 12.734631 4.637065 22.088334 -3.856398 -36.600315 -1.392864 11.888182 45.876002 0.461555 8.731123 1.234948 0.006970 -0.064280 0.010640 18.152472 -10.426550 2.127515 -21.351713 1.728112 -31.600599 -9.644538 -3.371872 35.960553 -0.241706 -4.636234 2.474099 -0.054870 0.092430 0.142260 -3.064793 -2.288634 -8.623747 4.447910 0.178816 32.692183 -1.682645 2.328711 6.842673 1.958252 -1.222445 -10.322742 -9.010920 4.294202 66.843807 -1.992910 0.778040 7.041550 -19.955709 -4.700625 2.461615 -27.170334 4.394032 -8.017716 -51.632013 -50.972578 21.603235 -3.637045 3.402387 0.238740 0.029060 0.121220 0.027960 16.389237 7.605571 5.620156 32.834734 -4.264672 -10.963532 50.610453 46.632409 16.168914 2.456795 -1.642914 -0.047130 0.083580 0.096350 -0.006360 
-0.903940 16.953000 -1.798490 -0.696418 -3.467886 0.072103 -15.419782 12.839835 4.530171 22.862375 -3.401966 -35.894548 -0.113252 11.655021 46.739547 0.468785 8.788098 1.192829 0.053860 -0.004790 0.050580 18.148220 -10.444331 2.071945 -22.012659 1.581030 -31.302430 -10.560901 -3.123624 36.567737 -0.287327 -4.741062 2.424978 -0.024600 0.053660 0.137560 -3.043880 -2.394125 -8.560338 4.203258 0.123392 34.161070 -1.628364 2.231338 7.933090 1.905910 -1.479853 -10.464970 -9.942961 5.489453 69.249225 -1.901410 1.435860 6.593550 -19.246878 -4.341723 2.466006 -25.831844 4.535734 -7.767146 -54.886549 -52.965478 24.383833 -3.613499 3.433847 0.253420 0.004600 0.151890 0.027890 15.762829 7.418536 5.513074 31.768798 -3.787918 -10.734636 53.645725 48.962498 18.556135 2.464138 -1.675468 -0.031440 0.082760 0.072000 -0.014100 
-0.919550 16.727820 -1.794540 -0.571140 -4.076837 -1.684714 -15.442880 12.938648 4.435630 24.367134 -2.747041 -34.910498 1.159945 11.738930 48.479440 0.503047 9.071839 1.079688 0.114800 0.077720 0.079410 18.144688 -10.449069 1.965256 -23.288734 1.314763 -30.762966 -12.116959 -2.749790 37.978867 -0.371847 -5.016100 2.318973 0.024500 0.025690 0.138590 -3.004734 -2.542775 -8.504381 3.738902 0.114282 36.634898 -1.562964 2.175335 9.429895 1.732142 -2.147206 -10.374770 -12.113250 6.575648 70.672637 -2.153740 1.008390 4.859490 -18.469039 -3.665240 2.197726 -23.421002 4.369653 -7.214784 -59.382412 -55.896272 28.720903 -3.595253 3.466319 0.273490 -0.019680 0.186800 0.042260 15.239654 7.274756 5.357467 28.959755 -3.242456 -10.200059 58.246979 52.212127 22.379619 2.460314 -1.712525 -0.015980 0.104900 0.050390 -0.010930 
-0.924720 16.482760 -1.791870 -0.898653 -4.169142 -3.682857 -15.446800 12.983177 4.382332 25.828576 -2.237038 -34.532352 3.991449 11.404597 52.381631 0.607745 9.596853 0.906601 0.150080 0.124940 0.103640 18.163478 -10.498580 1.852420 -23.942810 1.210230 -30.072721 -14.067236 -2.198757 40.354565 -0.474628 -5.447600 2.165870 0.056810 0.013510 0.142040 -3.034395 -2.520807 -8.488001 4.471425 0.134662 39.642302 -1.706146 2.539433 10.706086 1.808224 -1.849029 -10.039571 -11.466360 5.986956 71.353920 -1.980670 0.687200 3.535870 -18.720052 -3.414560 1.709711 -20.006371 3.992058 -6.629567 -64.335834 -59.113202 34.009353 -3.601680 3.499358 0.284810 -0.027240 0.205220 0.045860 15.178646 6.794102 5.323662 26.139857 -3.952737 -9.900564 63.907300 55.809604 27.122113 2.467960 -1.745900 -0.011560 0.120360 0.039820 -0.014150 
-0.939170 16.239060 -1.780200 -1.119485 -4.524858 -5.662175 -15.490894 12.963693 4.396121 27.476445 -1.779544 -34.259076 5.719326 11.619750 56.229940 0.746234 10.217881 0.709298 0.183440 0.171740 0.134430 18.164402 -10.418806 1.792257 -24.792404 1.271366 -29.949396 -15.248645 -1.932835 43.768596 -0.602495 -6.025427 1.964158 0.086890 -0.003730 0.144430 -2.982591 -2.615873 -8.516755 4.302864 0.293453 42.408339 -1.582374 2.737761 11.917805 1.912660 -1.354440 -9.778692 -10.210836 5.541283 72.298696 -2.085420 1.146440 2.533250 -19.083998 -3.640063 1.454627 -16.999933 3.695799 -6.242426 -66.972263 -61.371305 37.460298 -3.606649 3.515284 0.292360 -0.031690 0.225730 0.048450 15.243796 6.708738 5.195327 23.954883 -3.610660 -9.574267 67.087886 58.908748 30.743711 2.487256 -1.746639 -0.006830 0.129770 0.023800 -0.021120 
-0.953880 16.061990 -1.776250 -1.468576 -4.752504 -8.122955 -15.518984 13.050909 4.381200 28.318650 -1.586964 -33.973852 8.281792 11.074995 60.377992 0.882129 10.769119 0.547154 0.212940 0.207420 0.154360 18.149591 -10.419360 1.694817 -24.414652 1.651230 -29.092454 -17.102476 -1.046255 47.226033 -0.743414 -6.616276 1.768112 0.119280 -0.008880 0.146990 -2.927545 -2.754793 -8.477531 3.964123 0.322386 45.718840 -1.382873 2.762827 12.912896 1.910729 -1.181398 -9.184847 -9.610636 5.529472 73.141868 -1.885500 1.332860 1.764710 -20.367015 -3.894863 1.173768 -14.774767 3.500952 -6.218703 -66.417612 -63.845478 38.866384 -3.609257 3.535114 0.296380 -0.032340 0.231340 0.051420 16.438406 6.931268 4.623425 21.300792 -1.858742 -9.343797 64.174738 61.714495 31.220749 2.471813 -1.746850 -0.009070 0.138230 0.015620 -0.026900 
-0.960760 15.941690 -1.781060 -1.792495 -5.444232 -10.083071 -15.546761 13.192000 4.309145 28.333659 -1.576287 -33.767596 11.314016 9.794165 63.856925 0.986659 11.146664 0.440670 0.247190 0.244370 0.165100 18.123046 -10.383446 1.683068 -23.170898 2.372149 -28.798002 -19.237716 0.321225 49.932699 -0.875423 -7.091857 1.615539 0.156720 -0.005640 0.140580 -2.845571 -2.964422 -8.418601 3.587434 0.863607 48.559387 -0.631541 3.378855 13.722992 1.677825 -1.004421 -8.665466 -9.235579 5.934325 74.192393 -0.109160 1.462580 1.227060 -21.374066 -4.386183 0.848276 -14.354875 1.862119 -6.445246 -59.786534 -66.274086 36.007395 -3.596569 3.541906 0.308550 -0.042100 0.229540 0.059460 17.666270 7.593948 4.222110 19.091565 -0.444066 -9.558902 56.709635 62.968742 28.195672 2.402972 -1.779539 -0.019140 0.148470 0.008550 -0.031560 
-0.960550 15.871890 -1.774310 -2.075987 -5.911340 -12.108858 -15.539575 13.437395 4.139265 27.630740 -1.886545 -32.703730 14.057438 7.962678 65.818428 1.039052 11.269478 0.406254 0.289150 0.299010 0.183400 18.089153 -10.451128 1.682220 -22.322404 2.858364 -27.946995 -20.338633 1.167723 52.052721 -0.996833 -7.458866 1.499493 0.191820 -0.022030 0.140120 -2.792756 -3.157644 -8.315771 3.382256 1.121151 51.473412 -0.339699 3.801608 14.053475 1.721313 -0.784373 -8.283799 -8.847739 5.566872 75.131771 0.858550 0.978320 -0.114780 -23.164277 -5.845636 0.601005 -14.242319 0.104326 -7.213258 -49.609050 -67.478397 29.707616 -3.551378 3.523261 0.330890 -0.063440 0.253220 0.067370 19.229674 9.091671 4.267149 17.652881 0.313279 -10.356809 48.860578 63.444129 24.268690 2.324439 -1.797532 -0.013810 0.163090 -0.003610 -0.032100 
-0.945180 15.831930 -1.750770 -2.039704 -6.465135 -13.087118 -15.490658 13.540118 3.980302 26.494125 -2.269991 -31.910681 15.981179 6.483745 66.843167 1.073259 11.311669 0.395554 0.318880 0.339970 0.196720 18.100643 -10.550970 1.752292 -22.289078 3.086651 -27.949486 -20.823143 1.539552 53.078831 -1.061841 -7.642291 1.434463 0.216390 -0.032460 0.140570 -2.858476 -3.049668 -8.253484 3.756182 1.156535 52.526152 -0.925724 4.023809 13.430272 1.919192 -0.346097 -7.873297 -7.511888 5.232757 76.258706 2.067340 1.288430 -0.710470 -24.916301 -6.677149 0.215625 -15.082592 -1.467932 -7.947222 -39.076631 -66.703757 22.341868 -3.513647 3.499712 0.346170 -0.077570 0.271940 0.073610 20.583201 9.570271 4.100403 18.400346 1.130522 -10.844256 41.863969 60.867070 19.496636 2.282540 -1.776072 -0.009460 0.168170 -0.014200 -0.032880 
-0.931010 15.865420 -1.711900 -1.901621 -6.497980 -12.545650 -15.421346 13.541778 3.866047 24.930580 -2.701053 -31.578108 16.733694 5.632504 66.640075 1.049815 11.194941 0.415267 0.346990 0.377440 0.208220 18.136607 -10.672589 1.828313 -23.005498 2.911936 -28.301039 -19.920859 0.956115 52.443077 -1.031074 -7.490842 1.462570 0.236900 -0.051340 0.139520 -2.994975 -2.778811 -8.211252 4.849033 0.836754 51.583597 -1.817851 3.971498 12.304622 2.196146 -0.054029 -7.676768 -6.521568 5.372960 78.489293 3.256380 1.773490 -0.630780 -26.389373 -6.879247 -0.196273 -17.832272 -3.122131 -8.580940 -29.268161 -63.899751 15.224591 -3.481086 3.447738 0.362860 -0.095070 0.290720 0.075790 21.610477 9.339389 3.874121 20.944498 1.925360 -11.045075 36.679244 57.277915 15.602474 2.274596 -1.719699 -0.002390 0.162270 -0.022860 -0.036350 
-0.939230 15.951390 -1.658370 -1.537010 -6.591326 -11.200082 -15.359353 13.500996 3.798193 23.900934 -2.878444 -31.349777 16.084888 5.748893 65.127205 1.000924 10.935057 0.503085 0.343080 0.366200 0.199310 18.173223 -10.794774 1.867742 -23.724976 2.499350 -28.514625 -18.689382 0.174651 50.478757 -0.929709 -7.132820 1.570267 0.230930 -0.039780 0.122720 -3.124064 -2.481518 -8.171357 5.772324 0.579307 49.396632 -2.524719 3.868646 10.980301 2.316886 -0.270583 -7.434470 -7.156365 5.406548 81.720347 3.775920 0.615690 1.252390 -27.940996 -6.181834 -0.770982 -21.372384 -4.626808 -8.970890 -21.922884 -60.791024 10.235446 -3.467019 3.374598 0.350740 -0.099920 0.277750 0.087280 23.049818 8.665402 3.563840 23.729487 2.570306 -10.987269 33.679414 53.478799 12.953616 2.301414 -1.670093 -0.004840 0.168550 -0.029700 -0.024520 
-0.940610 16.072860 -1.589930 -1.520347 -6.802399 -9.344043 -15.325168 13.486752 3.756529 23.540412 -2.852802 -31.017800 14.650183 6.361318 62.713271 0.929420 10.556883 0.622557 0.315330 0.335690 0.179020 18.182734 -10.877950 1.892887 -24.426193 2.000808 -28.535055 -16.583718 -1.015999 47.868411 -0.792718 -6.666520 1.725341 0.204520 -0.026300 0.112050 -3.175843 -2.293451 -8.156971 6.135033 0.648577 46.406548 -2.909735 3.964963 9.213915 2.551096 -0.028628 -7.380630 -6.354803 4.803076 84.482144 3.733960 0.324160 3.845640 -30.022680 -5.886480 -1.014247 -24.346597 -4.904123 -9.454394 -17.373847 -57.446615 7.154876 -3.467146 3.315074 0.327780 -0.087130 0.262170 0.092210 24.831029 8.201714 3.494213 26.594235 2.206842 -11.073622 30.833738 49.070008 10.339137 2.328052 -1.617620 -0.003110 0.158480 -0.032190 -0.014080 
-0.958290 16.226110 -1.531910 -1.783241 -7.374839 -7.106549 -15.318001 13.488756 3.719378 23.979737 -2.395792 -30.533349 12.407120 7.418596 58.975467 0.792425 10.038168 0.770019 0.284280 0.297000 0.158880 18.172405 -10.888121 1.951260 -24.369292 1.878610 -28.700330 -13.929975 -2.185962 45.096484 -0.655252 -6.153508 1.896476 0.178130 -0.008860 0.105860 -3.158747 -2.205536 -8.159681 6.149535 1.165626 42.972031 -2.572230 4.500319 7.590829 2.603433 0.247773 -7.483284 -5.356550 4.212195 86.213654 4.166470 0.333510 5.762930 -31.019266 -5.293160 -1.143229 -27.597123 -4.806085 -9.635152 -15.767519 -53.833381 5.738260 -3.487945 3.248781 0.321270 -0.076030 0.248380 0.089630 25.807170 7.714954 3.413719 29.111837 1.848941 -10.759307 28.197125 42.849255 7.710052 2.358876 -1.529984 -0.010660 0.154540 -0.021440 -0.011670 
-0.971600 16.413900 -1.455060 -1.997718 -7.603549 -4.770288 -15.289291 13.543211 3.629828 23.973352 -2.077171 -29.646275 10.123156 8.023449 54.183694 0.625904 9.323805 0.978197 0.251520 0.257080 0.120860 18.163745 -10.951494 2.000474 -24.610699 1.559355 -28.345679 -10.844741 -3.415031 41.601398 -0.512633 -5.601789 2.077489 0.149620 0.011140 0.101200 -3.173274 -2.139588 -8.117205 6.434442 1.330487 38.999624 -2.089505 4.650634 6.187506 2.375361 -0.186489 -7.750381 -6.771696 5.288795 88.031965 4.897710 -0.096820 7.849150 -31.406781 -4.475659 -1.173678 -31.951114 -4.726972 -9.798559 -13.647927 -49.888470 4.067799 -3.509779 3.177604 0.312060 -0.072570 0.231120 0.088790 26.704174 7.343740 3.348823 31.421505 1.512541 -10.334741 24.930003 36.545669 5.292315 2.399181 -1.437900 -0.011600 0.145220 -0.002410 0.000670 
